<svg width="1178" height="459" viewBox="0 0 1178 459" fill="none" xmlns="http://www.w3.org/2000/svg">
<g filter="url(#filter0_d_106:158)">
<rect x="4" width="1170" height="451" rx="35" fill="#A5A6F6"/>
</g>
<rect x="444.5" y="40.5" width="294" height="156" rx="19.5" stroke="black"/>
<rect x="786.5" y="40.5" width="294" height="156" rx="19.5" stroke="black"/>
<rect x="102.5" y="40.5" width="294" height="156" rx="19.5" stroke="black"/>
<rect x="102.5" y="251.5" width="421" height="156" rx="19.5" stroke="black"/>
<rect x="659.5" y="251.5" width="421" height="156" rx="19.5" stroke="black"/>
<path d="M229.55 132.64C232.49 132.64 234.79 133.54 236.45 135.34C238.11 137.12 238.94 139.69 238.94 143.05C238.94 145.43 238.49 147.47 237.59 149.17C236.71 150.87 235.46 152.16 233.84 153.04C232.22 153.92 230.35 154.36 228.23 154.36C227.11 154.36 226.04 154.24 225.02 154C224 153.74 223.13 153.38 222.41 152.92L224.21 149.35C225.23 150.05 226.54 150.4 228.14 150.4C229.92 150.4 231.33 149.88 232.37 148.84C233.41 147.78 233.97 146.26 234.05 144.28C232.79 145.54 231.05 146.17 228.83 146.17C227.49 146.17 226.27 145.9 225.17 145.36C224.07 144.82 223.2 144.06 222.56 143.08C221.92 142.08 221.6 140.93 221.6 139.63C221.6 138.23 221.95 137 222.65 135.94C223.35 134.88 224.3 134.07 225.5 133.51C226.72 132.93 228.07 132.64 229.55 132.64ZM229.91 142.54C230.97 142.54 231.83 142.25 232.49 141.67C233.17 141.07 233.51 140.31 233.51 139.39C233.51 138.47 233.18 137.72 232.52 137.14C231.88 136.56 230.99 136.27 229.85 136.27C228.81 136.27 227.96 136.55 227.3 137.11C226.66 137.67 226.34 138.43 226.34 139.39C226.34 140.35 226.66 141.12 227.3 141.7C227.96 142.26 228.83 142.54 229.91 142.54ZM248.572 140.89C251.532 140.89 253.712 141.48 255.112 142.66C256.532 143.84 257.242 145.42 257.242 147.4C257.242 148.68 256.922 149.85 256.282 150.91C255.642 151.95 254.662 152.79 253.342 153.43C252.042 154.05 250.432 154.36 248.512 154.36C247.032 154.36 245.572 154.17 244.132 153.79C242.712 153.39 241.502 152.83 240.502 152.11L242.422 148.39C243.222 148.99 244.142 149.46 245.182 149.8C246.222 150.12 247.292 150.28 248.392 150.28C249.612 150.28 250.572 150.04 251.272 149.56C251.972 149.08 252.322 148.41 252.322 147.55C252.322 146.65 251.952 145.97 251.212 145.51C250.492 145.05 249.232 144.82 247.432 144.82H242.062L243.142 133H255.952V136.9H247.192L246.862 140.89H248.572ZM278.543 149.59H275.123V154H270.383V149.59H259.073V146.32L268.973 133H274.073L264.893 145.63H270.533V141.7H275.123V145.63H278.543V149.59Z" fill="#252B42"/>
<path d="M927.61 128V131.15L919.81 149H914.53L922.06 131.96H915.1V135.38H910.78V128H927.61ZM939.398 135.83C940.738 135.83 941.958 136.1 943.058 136.64C944.158 137.18 945.028 137.95 945.668 138.95C946.308 139.93 946.628 141.07 946.628 142.37C946.628 143.77 946.278 145 945.578 146.06C944.878 147.12 943.918 147.94 942.698 148.52C941.498 149.08 940.158 149.36 938.678 149.36C935.738 149.36 933.438 148.46 931.778 146.66C930.118 144.86 929.288 142.29 929.288 138.95C929.288 136.57 929.738 134.53 930.638 132.83C931.538 131.13 932.788 129.84 934.388 128.96C936.008 128.08 937.878 127.64 939.998 127.64C941.118 127.64 942.188 127.77 943.208 128.03C944.248 128.27 945.128 128.62 945.848 129.08L944.048 132.65C943.008 131.95 941.698 131.6 940.118 131.6C938.338 131.6 936.928 132.12 935.888 133.16C934.848 134.2 934.288 135.71 934.208 137.69C935.448 136.45 937.178 135.83 939.398 135.83ZM938.408 145.73C939.448 145.73 940.288 145.45 940.928 144.89C941.588 144.33 941.918 143.57 941.918 142.61C941.918 141.65 941.588 140.89 940.928 140.33C940.288 139.75 939.428 139.46 938.348 139.46C937.288 139.46 936.418 139.76 935.738 140.36C935.058 140.94 934.718 141.69 934.718 142.61C934.718 143.53 935.048 144.28 935.708 144.86C936.368 145.44 937.268 145.73 938.408 145.73ZM962.859 137.96C963.899 138.48 964.689 139.16 965.229 140C965.789 140.84 966.069 141.81 966.069 142.91C966.069 144.21 965.699 145.35 964.959 146.33C964.219 147.29 963.179 148.04 961.839 148.58C960.499 149.1 958.949 149.36 957.189 149.36C955.429 149.36 953.879 149.1 952.539 148.58C951.219 148.04 950.189 147.29 949.449 146.33C948.729 145.35 948.369 144.21 948.369 142.91C948.369 141.81 948.639 140.84 949.179 140C949.739 139.16 950.529 138.48 951.549 137.96C950.769 137.48 950.169 136.88 949.749 136.16C949.329 135.42 949.119 134.58 949.119 133.64C949.119 132.42 949.459 131.36 950.139 130.46C950.819 129.56 951.769 128.87 952.989 128.39C954.209 127.89 955.609 127.64 957.189 127.64C958.789 127.64 960.199 127.89 961.419 128.39C962.659 128.87 963.619 129.56 964.299 130.46C964.979 131.36 965.319 132.42 965.319 133.64C965.319 134.58 965.109 135.42 964.689 136.16C964.269 136.88 963.659 137.48 962.859 137.96ZM957.189 131.21C956.209 131.21 955.419 131.45 954.819 131.93C954.239 132.39 953.949 133.03 953.949 133.85C953.949 134.65 954.239 135.28 954.819 135.74C955.399 136.2 956.189 136.43 957.189 136.43C958.189 136.43 958.989 136.2 959.589 135.74C960.189 135.28 960.489 134.65 960.489 133.85C960.489 133.03 960.189 132.39 959.589 131.93C958.989 131.45 958.189 131.21 957.189 131.21ZM957.189 145.79C958.409 145.79 959.369 145.52 960.069 144.98C960.789 144.42 961.149 143.68 961.149 142.76C961.149 141.84 960.789 141.11 960.069 140.57C959.369 140.03 958.409 139.76 957.189 139.76C955.989 139.76 955.039 140.03 954.339 140.57C953.639 141.11 953.289 141.84 953.289 142.76C953.289 143.7 953.639 144.44 954.339 144.98C955.039 145.52 955.989 145.79 957.189 145.79Z" fill="#252B42"/>
<path d="M571.27 133V154H566.41V136.9H562.21V133H571.27ZM577.778 154.24C576.958 154.24 576.268 153.96 575.708 153.4C575.148 152.84 574.868 152.14 574.868 151.3C574.868 150.44 575.148 149.75 575.708 149.23C576.268 148.69 576.958 148.42 577.778 148.42C578.598 148.42 579.288 148.69 579.848 149.23C580.408 149.75 580.688 150.44 580.688 151.3C580.688 152.14 580.408 152.84 579.848 153.4C579.288 153.96 578.598 154.24 577.778 154.24ZM591.589 154.36C589.849 154.36 588.299 153.93 586.939 153.07C585.579 152.21 584.509 150.97 583.729 149.35C582.969 147.71 582.589 145.76 582.589 143.5C582.589 141.24 582.969 139.3 583.729 137.68C584.509 136.04 585.579 134.79 586.939 133.93C588.299 133.07 589.849 132.64 591.589 132.64C593.329 132.64 594.879 133.07 596.239 133.93C597.599 134.79 598.659 136.04 599.419 137.68C600.199 139.3 600.589 141.24 600.589 143.5C600.589 145.76 600.199 147.71 599.419 149.35C598.659 150.97 597.599 152.21 596.239 153.07C594.879 153.93 593.329 154.36 591.589 154.36ZM591.589 150.25C592.869 150.25 593.869 149.7 594.589 148.6C595.329 147.5 595.699 145.8 595.699 143.5C595.699 141.2 595.329 139.5 594.589 138.4C593.869 137.3 592.869 136.75 591.589 136.75C590.329 136.75 589.329 137.3 588.589 138.4C587.869 139.5 587.509 141.2 587.509 143.5C587.509 145.8 587.869 147.5 588.589 148.6C589.329 149.7 590.329 150.25 591.589 150.25ZM610.25 140.89C613.21 140.89 615.39 141.48 616.79 142.66C618.21 143.84 618.92 145.42 618.92 147.4C618.92 148.68 618.6 149.85 617.96 150.91C617.32 151.95 616.34 152.79 615.02 153.43C613.72 154.05 612.11 154.36 610.19 154.36C608.71 154.36 607.25 154.17 605.81 153.79C604.39 153.39 603.18 152.83 602.18 152.11L604.1 148.39C604.9 148.99 605.82 149.46 606.86 149.8C607.9 150.12 608.97 150.28 610.07 150.28C611.29 150.28 612.25 150.04 612.95 149.56C613.65 149.08 614 148.41 614 147.55C614 146.65 613.63 145.97 612.89 145.51C612.17 145.05 610.91 144.82 609.11 144.82H603.74L604.82 133H617.63V136.9H608.87L608.54 140.89H610.25ZM640.222 149.59H636.802V154H632.062V149.59H620.752V146.32L630.652 133H635.752L626.572 145.63H632.212V141.7H636.802V145.63H640.222V149.59Z" fill="#252B42"/>
<path d="M138.378 70H144.498C145.991 70 147.318 70.2933 148.478 70.88C149.638 71.4533 150.538 72.2733 151.178 73.34C151.818 74.3933 152.138 75.6133 152.138 77C152.138 78.3867 151.818 79.6133 151.178 80.68C150.538 81.7333 149.638 82.5533 148.478 83.14C147.318 83.7133 145.991 84 144.498 84H138.378V70ZM144.378 81.8C145.405 81.8 146.305 81.6067 147.078 81.22C147.865 80.82 148.465 80.26 148.878 79.54C149.305 78.8067 149.518 77.96 149.518 77C149.518 76.04 149.305 75.2 148.878 74.48C148.465 73.7467 147.865 73.1867 147.078 72.8C146.305 72.4 145.405 72.2 144.378 72.2H140.978V81.8H144.378ZM163.986 80.76H156.986L155.606 84H152.926L159.226 70H161.786L168.106 84H165.386L163.986 80.76ZM163.126 78.72L160.486 72.6L157.866 78.72H163.126ZM170.087 70H172.687V81.8H180.007V84H170.087V70ZM191.437 80.76H184.437L183.057 84H180.377L186.677 70H189.237L195.557 84H192.837L191.437 80.76ZM190.577 78.72L187.937 72.6L185.317 78.72H190.577ZM210.397 84L210.377 74.72L205.777 82.4H204.617L200.017 74.84V84H197.537V70H199.677L205.237 79.28L210.697 70H212.837L212.857 84H210.397ZM228.326 70C229.54 70 230.593 70.2 231.486 70.6C232.393 71 233.086 71.5733 233.566 72.32C234.046 73.0667 234.286 73.9533 234.286 74.98C234.286 75.9933 234.046 76.88 233.566 77.64C233.086 78.3867 232.393 78.96 231.486 79.36C230.593 79.76 229.54 79.96 228.326 79.96H225.166V84H222.566V70H228.326ZM228.206 77.76C229.34 77.76 230.2 77.52 230.786 77.04C231.373 76.56 231.666 75.8733 231.666 74.98C231.666 74.0867 231.373 73.4 230.786 72.92C230.2 72.44 229.34 72.2 228.206 72.2H225.166V77.76H228.206ZM247.583 81.82V84H237.083V70H247.303V72.18H239.683V75.82H246.443V77.96H239.683V81.82H247.583ZM259.841 84L256.981 79.9C256.861 79.9133 256.681 79.92 256.441 79.92H253.281V84H250.681V70H256.441C257.655 70 258.708 70.2 259.601 70.6C260.508 71 261.201 71.5733 261.681 72.32C262.161 73.0667 262.401 73.9533 262.401 74.98C262.401 76.0333 262.141 76.94 261.621 77.7C261.115 78.46 260.381 79.0267 259.421 79.4L262.641 84H259.841ZM259.781 74.98C259.781 74.0867 259.488 73.4 258.901 72.92C258.315 72.44 257.455 72.2 256.321 72.2H253.281V77.78H256.321C257.455 77.78 258.315 77.54 258.901 77.06C259.488 76.5667 259.781 75.8733 259.781 74.98ZM274.59 80.76H267.59L266.21 84H263.53L269.83 70H272.39L278.71 84H275.99L274.59 80.76ZM273.73 78.72L271.09 72.6L268.47 78.72H273.73ZM300.408 70L295.768 84H293.008L289.548 73.64L286.028 84H283.248L278.608 70H281.308L284.788 80.64L288.408 70H290.808L294.348 80.7L297.928 70H300.408ZM311.357 80.76H304.357L302.977 84H300.297L306.597 70H309.157L315.477 84H312.757L311.357 80.76ZM310.497 78.72L307.857 72.6L305.237 78.72H310.497ZM319.595 72.2H314.955V70H326.835V72.2H322.195V84H319.595V72.2ZM337.363 80.76H330.363L328.983 84H326.303L332.603 70H335.163L341.483 84H338.763L337.363 80.76ZM336.503 78.72L333.863 72.6L331.243 78.72H336.503ZM355.903 70V84H353.763L346.043 74.52V84H343.463V70H345.603L353.323 79.48V70H355.903ZM188.151 104.76H181.151L179.771 108H177.091L183.391 94H185.951L192.271 108H189.551L188.151 104.76ZM187.291 102.72L184.651 96.6L182.031 102.72H187.291ZM196.388 96.2H191.748V94H203.628V96.2H198.988V108H196.388V96.2ZM214.156 104.76H207.156L205.776 108H203.096L209.396 94H211.956L218.276 108H215.556L214.156 104.76ZM213.296 102.72L210.656 96.6L208.036 102.72H213.296ZM225.984 108.2C224.051 108.2 222.544 107.66 221.464 106.58C220.384 105.487 219.844 103.927 219.844 101.9V94H222.444V101.8C222.444 104.547 223.631 105.92 226.004 105.92C228.364 105.92 229.544 104.547 229.544 101.8V94H232.104V101.9C232.104 103.927 231.564 105.487 230.484 106.58C229.417 107.66 227.917 108.2 225.984 108.2ZM241.673 94H244.273V108H241.673V94ZM252.599 108.2C251.519 108.2 250.473 108.047 249.459 107.74C248.459 107.433 247.666 107.027 247.079 106.52L247.979 104.5C248.553 104.953 249.253 105.327 250.079 105.62C250.919 105.9 251.759 106.04 252.599 106.04C253.639 106.04 254.413 105.873 254.919 105.54C255.439 105.207 255.699 104.767 255.699 104.22C255.699 103.82 255.553 103.493 255.259 103.24C254.979 102.973 254.619 102.767 254.179 102.62C253.739 102.473 253.139 102.307 252.379 102.12C251.313 101.867 250.446 101.613 249.779 101.36C249.126 101.107 248.559 100.713 248.079 100.18C247.613 99.6333 247.379 98.9 247.379 97.98C247.379 97.2067 247.586 96.5067 247.999 95.88C248.426 95.24 249.059 94.7333 249.899 94.36C250.753 93.9867 251.793 93.8 253.019 93.8C253.873 93.8 254.713 93.9067 255.539 94.12C256.366 94.3333 257.079 94.64 257.679 95.04L256.859 97.06C256.246 96.7 255.606 96.4267 254.939 96.24C254.273 96.0533 253.626 95.96 252.999 95.96C251.973 95.96 251.206 96.1333 250.699 96.48C250.206 96.8267 249.959 97.2867 249.959 97.86C249.959 98.26 250.099 98.5867 250.379 98.84C250.673 99.0933 251.039 99.2933 251.479 99.44C251.919 99.5867 252.519 99.7533 253.279 99.94C254.319 100.18 255.173 100.433 255.839 100.7C256.506 100.953 257.073 101.347 257.539 101.88C258.019 102.413 258.259 103.133 258.259 104.04C258.259 104.813 258.046 105.513 257.619 106.14C257.206 106.767 256.573 107.267 255.719 107.64C254.866 108.013 253.826 108.2 252.599 108.2ZM267.577 108.2C266.151 108.2 264.864 107.893 263.717 107.28C262.571 106.653 261.671 105.793 261.017 104.7C260.364 103.593 260.037 102.36 260.037 101C260.037 99.64 260.364 98.4133 261.017 97.32C261.671 96.2133 262.571 95.3533 263.717 94.74C264.864 94.1133 266.151 93.8 267.577 93.8C269.004 93.8 270.291 94.1133 271.437 94.74C272.584 95.3533 273.484 96.2067 274.137 97.3C274.791 98.3933 275.117 99.6267 275.117 101C275.117 102.373 274.791 103.607 274.137 104.7C273.484 105.793 272.584 106.653 271.437 107.28C270.291 107.893 269.004 108.2 267.577 108.2ZM267.577 105.92C268.511 105.92 269.351 105.713 270.097 105.3C270.844 104.873 271.431 104.287 271.857 103.54C272.284 102.78 272.497 101.933 272.497 101C272.497 100.067 272.284 99.2267 271.857 98.48C271.431 97.72 270.844 97.1333 270.097 96.72C269.351 96.2933 268.511 96.08 267.577 96.08C266.644 96.08 265.804 96.2933 265.057 96.72C264.311 97.1333 263.724 97.72 263.297 98.48C262.871 99.2267 262.657 100.067 262.657 101C262.657 101.933 262.871 102.78 263.297 103.54C263.724 104.287 264.311 104.873 265.057 105.3C265.804 105.713 266.644 105.92 267.577 105.92ZM278.073 94H280.673V105.8H287.993V108H278.073V94ZM299.424 104.76H292.424L291.044 108H288.364L294.664 94H297.224L303.544 108H300.824L299.424 104.76ZM298.564 102.72L295.924 96.6L293.304 102.72H298.564ZM309.864 108.2C308.784 108.2 307.737 108.047 306.724 107.74C305.724 107.433 304.931 107.027 304.344 106.52L305.244 104.5C305.817 104.953 306.517 105.327 307.344 105.62C308.184 105.9 309.024 106.04 309.864 106.04C310.904 106.04 311.677 105.873 312.184 105.54C312.704 105.207 312.964 104.767 312.964 104.22C312.964 103.82 312.817 103.493 312.524 103.24C312.244 102.973 311.884 102.767 311.444 102.62C311.004 102.473 310.404 102.307 309.644 102.12C308.577 101.867 307.711 101.613 307.044 101.36C306.391 101.107 305.824 100.713 305.344 100.18C304.877 99.6333 304.644 98.9 304.644 97.98C304.644 97.2067 304.851 96.5067 305.264 95.88C305.691 95.24 306.324 94.7333 307.164 94.36C308.017 93.9867 309.057 93.8 310.284 93.8C311.137 93.8 311.977 93.9067 312.804 94.12C313.631 94.3333 314.344 94.64 314.944 95.04L314.124 97.06C313.511 96.7 312.871 96.4267 312.204 96.24C311.537 96.0533 310.891 95.96 310.264 95.96C309.237 95.96 308.471 96.1333 307.964 96.48C307.471 96.8267 307.224 97.2867 307.224 97.86C307.224 98.26 307.364 98.5867 307.644 98.84C307.937 99.0933 308.304 99.2933 308.744 99.44C309.184 99.5867 309.784 99.7533 310.544 99.94C311.584 100.18 312.437 100.433 313.104 100.7C313.771 100.953 314.337 101.347 314.804 101.88C315.284 102.413 315.524 103.133 315.524 104.04C315.524 104.813 315.311 105.513 314.884 106.14C314.471 106.767 313.837 107.267 312.984 107.64C312.131 108.013 311.091 108.2 309.864 108.2ZM318.302 94H320.902V108H318.302V94Z" fill="#171989"/>
<path d="M708 281.2H703.36V279H715.24V281.2H710.6V293H708V281.2ZM723.736 293.2C722.309 293.2 721.022 292.893 719.876 292.28C718.729 291.653 717.829 290.793 717.176 289.7C716.522 288.593 716.196 287.36 716.196 286C716.196 284.64 716.522 283.413 717.176 282.32C717.829 281.213 718.729 280.353 719.876 279.74C721.022 279.113 722.309 278.8 723.736 278.8C725.162 278.8 726.449 279.113 727.596 279.74C728.742 280.353 729.642 281.207 730.296 282.3C730.949 283.393 731.276 284.627 731.276 286C731.276 287.373 730.949 288.607 730.296 289.7C729.642 290.793 728.742 291.653 727.596 292.28C726.449 292.893 725.162 293.2 723.736 293.2ZM723.736 290.92C724.669 290.92 725.509 290.713 726.256 290.3C727.002 289.873 727.589 289.287 728.016 288.54C728.442 287.78 728.656 286.933 728.656 286C728.656 285.067 728.442 284.227 728.016 283.48C727.589 282.72 727.002 282.133 726.256 281.72C725.509 281.293 724.669 281.08 723.736 281.08C722.802 281.08 721.962 281.293 721.216 281.72C720.469 282.133 719.882 282.72 719.456 283.48C719.029 284.227 718.816 285.067 718.816 286C718.816 286.933 719.029 287.78 719.456 288.54C719.882 289.287 720.469 289.873 721.216 290.3C721.962 290.713 722.802 290.92 723.736 290.92ZM736.876 281.2H732.236V279H744.116V281.2H739.476V293H736.876V281.2ZM754.644 289.76H747.644L746.264 293H743.584L749.884 279H752.444L758.764 293H756.044L754.644 289.76ZM753.784 287.72L751.144 281.6L748.524 287.72H753.784ZM760.745 279H763.345V290.8H770.665V293H760.745V279ZM783.465 287.14L781.245 289.42V293H778.645V279H781.245V286.18L788.165 279H791.085L785.205 285.26L791.445 293H788.405L783.465 287.14ZM801.89 289.76H794.89L793.51 293H790.83L797.13 279H799.69L806.01 293H803.29L801.89 289.76ZM801.03 287.72L798.39 281.6L795.77 287.72H801.03ZM812.33 293.2C811.25 293.2 810.203 293.047 809.19 292.74C808.19 292.433 807.397 292.027 806.81 291.52L807.71 289.5C808.283 289.953 808.983 290.327 809.81 290.62C810.65 290.9 811.49 291.04 812.33 291.04C813.37 291.04 814.143 290.873 814.65 290.54C815.17 290.207 815.43 289.767 815.43 289.22C815.43 288.82 815.283 288.493 814.99 288.24C814.71 287.973 814.35 287.767 813.91 287.62C813.47 287.473 812.87 287.307 812.11 287.12C811.043 286.867 810.177 286.613 809.51 286.36C808.857 286.107 808.29 285.713 807.81 285.18C807.343 284.633 807.11 283.9 807.11 282.98C807.11 282.207 807.317 281.507 807.73 280.88C808.157 280.24 808.79 279.733 809.63 279.36C810.483 278.987 811.523 278.8 812.75 278.8C813.603 278.8 814.443 278.907 815.27 279.12C816.097 279.333 816.81 279.64 817.41 280.04L816.59 282.06C815.977 281.7 815.337 281.427 814.67 281.24C814.003 281.053 813.357 280.96 812.73 280.96C811.703 280.96 810.937 281.133 810.43 281.48C809.937 281.827 809.69 282.287 809.69 282.86C809.69 283.26 809.83 283.587 810.11 283.84C810.403 284.093 810.77 284.293 811.21 284.44C811.65 284.587 812.25 284.753 813.01 284.94C814.05 285.18 814.903 285.433 815.57 285.7C816.237 285.953 816.803 286.347 817.27 286.88C817.75 287.413 817.99 288.133 817.99 289.04C817.99 289.813 817.777 290.513 817.35 291.14C816.937 291.767 816.303 292.267 815.45 292.64C814.597 293.013 813.557 293.2 812.33 293.2ZM826.788 293.2C824.855 293.2 823.348 292.66 822.268 291.58C821.188 290.487 820.648 288.927 820.648 286.9V279H823.248V286.8C823.248 289.547 824.435 290.92 826.808 290.92C829.168 290.92 830.348 289.547 830.348 286.8V279H832.908V286.9C832.908 288.927 832.368 290.487 831.288 291.58C830.222 292.66 828.722 293.2 826.788 293.2ZM841.09 293.2C840.01 293.2 838.963 293.047 837.95 292.74C836.95 292.433 836.156 292.027 835.57 291.52L836.47 289.5C837.043 289.953 837.743 290.327 838.57 290.62C839.41 290.9 840.25 291.04 841.09 291.04C842.13 291.04 842.903 290.873 843.41 290.54C843.93 290.207 844.19 289.767 844.19 289.22C844.19 288.82 844.043 288.493 843.75 288.24C843.47 287.973 843.11 287.767 842.67 287.62C842.23 287.473 841.63 287.307 840.87 287.12C839.803 286.867 838.936 286.613 838.27 286.36C837.616 286.107 837.05 285.713 836.57 285.18C836.103 284.633 835.87 283.9 835.87 282.98C835.87 282.207 836.076 281.507 836.49 280.88C836.916 280.24 837.55 279.733 838.39 279.36C839.243 278.987 840.283 278.8 841.51 278.8C842.363 278.8 843.203 278.907 844.03 279.12C844.856 279.333 845.57 279.64 846.17 280.04L845.35 282.06C844.736 281.7 844.096 281.427 843.43 281.24C842.763 281.053 842.116 280.96 841.49 280.96C840.463 280.96 839.696 281.133 839.19 281.48C838.696 281.827 838.45 282.287 838.45 282.86C838.45 283.26 838.59 283.587 838.87 283.84C839.163 284.093 839.53 284.293 839.97 284.44C840.41 284.587 841.01 284.753 841.77 284.94C842.81 285.18 843.663 285.433 844.33 285.7C844.996 285.953 845.563 286.347 846.03 286.88C846.51 287.413 846.75 288.133 846.75 289.04C846.75 289.813 846.536 290.513 846.11 291.14C845.696 291.767 845.063 292.267 844.21 292.64C843.356 293.013 842.316 293.2 841.09 293.2ZM858.095 281.2H853.455V279H865.335V281.2H860.695V293H858.095V281.2ZM877.986 290.82V293H867.486V279H877.706V281.18H870.086V284.82H876.846V286.96H870.086V290.82H877.986ZM890.245 293L887.385 288.9C887.265 288.913 887.085 288.92 886.845 288.92H883.685V293H881.085V279H886.845C888.058 279 889.111 279.2 890.005 279.6C890.911 280 891.605 280.573 892.085 281.32C892.565 282.067 892.805 282.953 892.805 283.98C892.805 285.033 892.545 285.94 892.025 286.7C891.518 287.46 890.785 288.027 889.825 288.4L893.045 293H890.245ZM890.185 283.98C890.185 283.087 889.891 282.4 889.305 281.92C888.718 281.44 887.858 281.2 886.725 281.2H883.685V286.78H886.725C887.858 286.78 888.718 286.54 889.305 286.06C889.891 285.567 890.185 284.873 890.185 283.98ZM900.734 287.14L898.514 289.42V293H895.914V279H898.514V286.18L905.434 279H908.354L902.474 285.26L908.714 293H905.674L900.734 287.14ZM916.716 293.2C915.289 293.2 914.003 292.893 912.856 292.28C911.709 291.653 910.809 290.793 910.156 289.7C909.503 288.593 909.176 287.36 909.176 286C909.176 284.64 909.503 283.413 910.156 282.32C910.809 281.213 911.709 280.353 912.856 279.74C914.003 279.113 915.289 278.8 916.716 278.8C918.143 278.8 919.429 279.113 920.576 279.74C921.723 280.353 922.623 281.207 923.276 282.3C923.929 283.393 924.256 284.627 924.256 286C924.256 287.373 923.929 288.607 923.276 289.7C922.623 290.793 921.723 291.653 920.576 292.28C919.429 292.893 918.143 293.2 916.716 293.2ZM916.716 290.92C917.649 290.92 918.489 290.713 919.236 290.3C919.983 289.873 920.569 289.287 920.996 288.54C921.423 287.78 921.636 286.933 921.636 286C921.636 285.067 921.423 284.227 920.996 283.48C920.569 282.72 919.983 282.133 919.236 281.72C918.489 281.293 917.649 281.08 916.716 281.08C915.783 281.08 914.943 281.293 914.196 281.72C913.449 282.133 912.863 282.72 912.436 283.48C912.009 284.227 911.796 285.067 911.796 286C911.796 286.933 912.009 287.78 912.436 288.54C912.863 289.287 913.449 289.873 914.196 290.3C914.943 290.713 915.783 290.92 916.716 290.92ZM939.652 279V293H937.512L929.792 283.52V293H927.212V279H929.352L937.072 288.48V279H939.652ZM946.203 281.18V285.44H952.963V287.64H946.203V293H943.603V279H953.823V281.18H946.203ZM956.538 279H959.138V293H956.538V279ZM972.285 293L969.425 288.9C969.305 288.913 969.125 288.92 968.885 288.92H965.725V293H963.125V279H968.885C970.098 279 971.151 279.2 972.045 279.6C972.951 280 973.645 280.573 974.125 281.32C974.605 282.067 974.845 282.953 974.845 283.98C974.845 285.033 974.585 285.94 974.065 286.7C973.558 287.46 972.825 288.027 971.865 288.4L975.085 293H972.285ZM972.225 283.98C972.225 283.087 971.931 282.4 971.345 281.92C970.758 281.44 969.898 281.2 968.765 281.2H965.725V286.78H968.765C969.898 286.78 970.758 286.54 971.345 286.06C971.931 285.567 972.225 284.873 972.225 283.98ZM990.813 293L990.793 283.72L986.193 291.4H985.033L980.433 283.84V293H977.953V279H980.093L985.653 288.28L991.113 279H993.253L993.273 293H990.813ZM1006.34 289.76H999.335L997.955 293H995.275L1001.58 279H1004.14L1010.46 293H1007.74L1006.34 289.76ZM1005.47 287.72L1002.84 281.6L1000.22 287.72H1005.47ZM1016.78 293.2C1015.7 293.2 1014.65 293.047 1013.64 292.74C1012.64 292.433 1011.84 292.027 1011.26 291.52L1012.16 289.5C1012.73 289.953 1013.43 290.327 1014.26 290.62C1015.1 290.9 1015.94 291.04 1016.78 291.04C1017.82 291.04 1018.59 290.873 1019.1 290.54C1019.62 290.207 1019.88 289.767 1019.88 289.22C1019.88 288.82 1019.73 288.493 1019.44 288.24C1019.16 287.973 1018.8 287.767 1018.36 287.62C1017.92 287.473 1017.32 287.307 1016.56 287.12C1015.49 286.867 1014.62 286.613 1013.96 286.36C1013.3 286.107 1012.74 285.713 1012.26 285.18C1011.79 284.633 1011.56 283.9 1011.56 282.98C1011.56 282.207 1011.76 281.507 1012.18 280.88C1012.6 280.24 1013.24 279.733 1014.08 279.36C1014.93 278.987 1015.97 278.8 1017.2 278.8C1018.05 278.8 1018.89 278.907 1019.72 279.12C1020.54 279.333 1021.26 279.64 1021.86 280.04L1021.04 282.06C1020.42 281.7 1019.78 281.427 1019.12 281.24C1018.45 281.053 1017.8 280.96 1017.18 280.96C1016.15 280.96 1015.38 281.133 1014.88 281.48C1014.38 281.827 1014.14 282.287 1014.14 282.86C1014.14 283.26 1014.28 283.587 1014.56 283.84C1014.85 284.093 1015.22 284.293 1015.66 284.44C1016.1 284.587 1016.7 284.753 1017.46 284.94C1018.5 285.18 1019.35 285.433 1020.02 285.7C1020.68 285.953 1021.25 286.347 1021.72 286.88C1022.2 287.413 1022.44 288.133 1022.44 289.04C1022.44 289.813 1022.22 290.513 1021.8 291.14C1021.38 291.767 1020.75 292.267 1019.9 292.64C1019.04 293.013 1018 293.2 1016.78 293.2ZM1025.21 279H1027.81V293H1025.21V279Z" fill="#171989"/>
<path d="M887.879 96L887.859 86.72L883.259 94.4H882.099L877.499 86.84V96H875.019V82H877.159L882.719 91.28L888.179 82H890.319L890.339 96H887.879ZM904.821 93.82V96H894.321V82H904.541V84.18H896.921V87.82H903.681V89.96H896.921V93.82H904.821ZM920.359 82V96H918.219L910.499 86.52V96H907.919V82H910.059L917.779 91.48V82H920.359ZM924.311 82H926.911V96H924.311V82ZM943.338 82V96H941.198L933.478 86.52V96H930.898V82H933.038L940.758 91.48V82H943.338ZM956.849 88.84H959.309V94.42C958.589 94.9933 957.749 95.4333 956.789 95.74C955.829 96.0467 954.842 96.2 953.829 96.2C952.402 96.2 951.116 95.8933 949.969 95.28C948.822 94.6533 947.922 93.7933 947.269 92.7C946.616 91.6067 946.289 90.3733 946.289 89C946.289 87.6267 946.616 86.3933 947.269 85.3C947.922 84.2067 948.822 83.3533 949.969 82.74C951.129 82.1133 952.429 81.8 953.869 81.8C955.042 81.8 956.109 81.9933 957.069 82.38C958.029 82.7667 958.836 83.3333 959.489 84.08L957.849 85.68C956.782 84.6133 955.496 84.08 953.989 84.08C953.002 84.08 952.122 84.2867 951.349 84.7C950.589 85.1133 949.989 85.6933 949.549 86.44C949.122 87.1867 948.909 88.04 948.909 89C948.909 89.9333 949.122 90.7733 949.549 91.52C949.989 92.2667 950.589 92.8533 951.349 93.28C952.122 93.7067 952.996 93.92 953.969 93.92C955.062 93.92 956.022 93.68 956.849 93.2V88.84ZM972.498 88.84H974.958V94.42C974.238 94.9933 973.398 95.4333 972.438 95.74C971.478 96.0467 970.492 96.2 969.478 96.2C968.052 96.2 966.765 95.8933 965.618 95.28C964.472 94.6533 963.572 93.7933 962.918 92.7C962.265 91.6067 961.938 90.3733 961.938 89C961.938 87.6267 962.265 86.3933 962.918 85.3C963.572 84.2067 964.472 83.3533 965.618 82.74C966.778 82.1133 968.078 81.8 969.518 81.8C970.692 81.8 971.758 81.9933 972.718 82.38C973.678 82.7667 974.485 83.3333 975.138 84.08L973.498 85.68C972.432 84.6133 971.145 84.08 969.638 84.08C968.652 84.08 967.772 84.2867 966.998 84.7C966.238 85.1133 965.638 85.6933 965.198 86.44C964.772 87.1867 964.558 88.04 964.558 89C964.558 89.9333 964.772 90.7733 965.198 91.52C965.638 92.2667 966.238 92.8533 966.998 93.28C967.772 93.7067 968.645 93.92 969.618 93.92C970.712 93.92 971.672 93.68 972.498 93.2V88.84ZM987.667 92.76H980.667L979.287 96H976.607L982.907 82H985.467L991.787 96H989.067L987.667 92.76ZM986.807 90.72L984.167 84.6L981.547 90.72H986.807ZM993.768 82H996.368V93.8H1003.69V96H993.768V82Z" fill="#171989"/>
<path d="M520.286 84.2C519.206 84.2 518.16 84.0467 517.146 83.74C516.146 83.4333 515.353 83.0267 514.766 82.52L515.666 80.5C516.24 80.9533 516.94 81.3267 517.766 81.62C518.606 81.9 519.446 82.04 520.286 82.04C521.326 82.04 522.1 81.8733 522.606 81.54C523.126 81.2067 523.386 80.7667 523.386 80.22C523.386 79.82 523.24 79.4933 522.946 79.24C522.666 78.9733 522.306 78.7667 521.866 78.62C521.426 78.4733 520.826 78.3067 520.066 78.12C519 77.8667 518.133 77.6133 517.466 77.36C516.813 77.1067 516.246 76.7133 515.766 76.18C515.3 75.6333 515.066 74.9 515.066 73.98C515.066 73.2067 515.273 72.5067 515.686 71.88C516.113 71.24 516.746 70.7333 517.586 70.36C518.44 69.9867 519.48 69.8 520.706 69.8C521.56 69.8 522.4 69.9067 523.226 70.12C524.053 70.3333 524.766 70.64 525.366 71.04L524.546 73.06C523.933 72.7 523.293 72.4267 522.626 72.24C521.96 72.0533 521.313 71.96 520.686 71.96C519.66 71.96 518.893 72.1333 518.386 72.48C517.893 72.8267 517.646 73.2867 517.646 73.86C517.646 74.26 517.786 74.5867 518.066 74.84C518.36 75.0933 518.726 75.2933 519.166 75.44C519.606 75.5867 520.206 75.7533 520.966 75.94C522.006 76.18 522.86 76.4333 523.526 76.7C524.193 76.9533 524.76 77.3467 525.226 77.88C525.706 78.4133 525.946 79.1333 525.946 80.04C525.946 80.8133 525.733 81.5133 525.306 82.14C524.893 82.7667 524.26 83.2667 523.406 83.64C522.553 84.0133 521.513 84.2 520.286 84.2ZM539.225 81.82V84H528.725V70H538.945V72.18H531.325V75.82H538.085V77.96H531.325V81.82H539.225ZM555.183 84L555.163 74.72L550.563 82.4H549.403L544.803 74.84V84H542.323V70H544.463L550.023 79.28L555.483 70H557.623L557.643 84H555.183ZM571.545 76.72C572.318 76.9733 572.931 77.4 573.385 78C573.838 78.5867 574.065 79.32 574.065 80.2C574.065 81.4133 573.598 82.3533 572.665 83.02C571.731 83.6733 570.371 84 568.585 84H561.625V70H568.185C569.838 70 571.111 70.3267 572.005 70.98C572.898 71.62 573.345 72.5067 573.345 73.64C573.345 74.3333 573.185 74.9467 572.865 75.48C572.545 76.0133 572.105 76.4267 571.545 76.72ZM564.225 72.04V75.9H567.905C568.811 75.9 569.505 75.74 569.985 75.42C570.478 75.0867 570.725 74.6067 570.725 73.98C570.725 73.34 570.478 72.86 569.985 72.54C569.505 72.2067 568.811 72.04 567.905 72.04H564.225ZM568.425 81.96C570.438 81.96 571.445 81.2867 571.445 79.94C571.445 78.5933 570.438 77.92 568.425 77.92H564.225V81.96H568.425ZM583.059 84.2C581.126 84.2 579.619 83.66 578.539 82.58C577.459 81.4867 576.919 79.9267 576.919 77.9V70H579.519V77.8C579.519 80.5467 580.706 81.92 583.079 81.92C585.439 81.92 586.619 80.5467 586.619 77.8V70H589.179V77.9C589.179 79.9267 588.639 81.4867 587.559 82.58C586.493 83.66 584.993 84.2 583.059 84.2ZM605.461 70V84H602.861V78H595.621V84H593.021V70H595.621V75.78H602.861V70H605.461ZM624.219 80.76H617.219L615.839 84H613.159L619.459 70H622.019L628.339 84H625.619L624.219 80.76ZM623.359 78.72L620.719 72.6L618.099 78.72H623.359ZM632.457 72.2H627.817V70H639.697V72.2H635.057V84H632.457V72.2ZM650.225 80.76H643.225L641.845 84H639.165L645.465 70H648.025L654.345 84H651.625L650.225 80.76ZM649.365 78.72L646.725 72.6L644.105 78.72H649.365ZM662.052 84.2C660.119 84.2 658.612 83.66 657.532 82.58C656.452 81.4867 655.912 79.9267 655.912 77.9V70H658.512V77.8C658.512 80.5467 659.699 81.92 662.072 81.92C664.432 81.92 665.612 80.5467 665.612 77.8V70H668.172V77.9C668.172 79.9267 667.632 81.4867 666.552 82.58C665.486 83.66 663.986 84.2 662.052 84.2ZM510.502 108.2C509.422 108.2 508.375 108.047 507.362 107.74C506.362 107.433 505.568 107.027 504.982 106.52L505.882 104.5C506.455 104.953 507.155 105.327 507.982 105.62C508.822 105.9 509.662 106.04 510.502 106.04C511.542 106.04 512.315 105.873 512.822 105.54C513.342 105.207 513.602 104.767 513.602 104.22C513.602 103.82 513.455 103.493 513.162 103.24C512.882 102.973 512.522 102.767 512.082 102.62C511.642 102.473 511.042 102.307 510.282 102.12C509.215 101.867 508.348 101.613 507.682 101.36C507.028 101.107 506.462 100.713 505.982 100.18C505.515 99.6333 505.282 98.9 505.282 97.98C505.282 97.2067 505.488 96.5067 505.902 95.88C506.328 95.24 506.962 94.7333 507.802 94.36C508.655 93.9867 509.695 93.8 510.922 93.8C511.775 93.8 512.615 93.9067 513.442 94.12C514.268 94.3333 514.982 94.64 515.582 95.04L514.762 97.06C514.148 96.7 513.508 96.4267 512.842 96.24C512.175 96.0533 511.528 95.96 510.902 95.96C509.875 95.96 509.108 96.1333 508.602 96.48C508.108 96.8267 507.862 97.2867 507.862 97.86C507.862 98.26 508.002 98.5867 508.282 98.84C508.575 99.0933 508.942 99.2933 509.382 99.44C509.822 99.5867 510.422 99.7533 511.182 99.94C512.222 100.18 513.075 100.433 513.742 100.7C514.408 100.953 514.975 101.347 515.442 101.88C515.922 102.413 516.162 103.133 516.162 104.04C516.162 104.813 515.948 105.513 515.522 106.14C515.108 106.767 514.475 107.267 513.622 107.64C512.768 108.013 511.728 108.2 510.502 108.2ZM529.44 105.82V108H518.94V94H529.16V96.18H521.54V99.82H528.3V101.96H521.54V105.82H529.44ZM532.538 94H535.138V105.8H542.458V108H532.538V94ZM555.211 105.82V108H544.711V94H554.931V96.18H547.311V99.82H554.071V101.96H547.311V105.82H555.211ZM562.649 108.2C561.569 108.2 560.523 108.047 559.509 107.74C558.509 107.433 557.716 107.027 557.129 106.52L558.029 104.5C558.603 104.953 559.303 105.327 560.129 105.62C560.969 105.9 561.809 106.04 562.649 106.04C563.689 106.04 564.463 105.873 564.969 105.54C565.489 105.207 565.749 104.767 565.749 104.22C565.749 103.82 565.603 103.493 565.309 103.24C565.029 102.973 564.669 102.767 564.229 102.62C563.789 102.473 563.189 102.307 562.429 102.12C561.363 101.867 560.496 101.613 559.829 101.36C559.176 101.107 558.609 100.713 558.129 100.18C557.663 99.6333 557.429 98.9 557.429 97.98C557.429 97.2067 557.636 96.5067 558.049 95.88C558.476 95.24 559.109 94.7333 559.949 94.36C560.803 93.9867 561.843 93.8 563.069 93.8C563.923 93.8 564.763 93.9067 565.589 94.12C566.416 94.3333 567.129 94.64 567.729 95.04L566.909 97.06C566.296 96.7 565.656 96.4267 564.989 96.24C564.323 96.0533 563.676 95.96 563.049 95.96C562.023 95.96 561.256 96.1333 560.749 96.48C560.256 96.8267 560.009 97.2867 560.009 97.86C560.009 98.26 560.149 98.5867 560.429 98.84C560.723 99.0933 561.089 99.2933 561.529 99.44C561.969 99.5867 562.569 99.7533 563.329 99.94C564.369 100.18 565.223 100.433 565.889 100.7C566.556 100.953 567.123 101.347 567.589 101.88C568.069 102.413 568.309 103.133 568.309 104.04C568.309 104.813 568.096 105.513 567.669 106.14C567.256 106.767 566.623 107.267 565.769 107.64C564.916 108.013 563.876 108.2 562.649 108.2ZM580.167 104.76H573.167L571.787 108H569.107L575.407 94H577.967L584.287 108H581.567L580.167 104.76ZM579.307 102.72L576.667 96.6L574.047 102.72H579.307ZM586.268 94H588.868V108H586.268V94ZM598.582 94H601.182V108H598.582V94ZM609.509 108.2C608.429 108.2 607.382 108.047 606.369 107.74C605.369 107.433 604.575 107.027 603.989 106.52L604.889 104.5C605.462 104.953 606.162 105.327 606.989 105.62C607.829 105.9 608.669 106.04 609.509 106.04C610.549 106.04 611.322 105.873 611.829 105.54C612.349 105.207 612.609 104.767 612.609 104.22C612.609 103.82 612.462 103.493 612.169 103.24C611.889 102.973 611.529 102.767 611.089 102.62C610.649 102.473 610.049 102.307 609.289 102.12C608.222 101.867 607.355 101.613 606.689 101.36C606.035 101.107 605.469 100.713 604.989 100.18C604.522 99.6333 604.289 98.9 604.289 97.98C604.289 97.2067 604.495 96.5067 604.909 95.88C605.335 95.24 605.969 94.7333 606.809 94.36C607.662 93.9867 608.702 93.8 609.929 93.8C610.782 93.8 611.622 93.9067 612.449 94.12C613.275 94.3333 613.989 94.64 614.589 95.04L613.769 97.06C613.155 96.7 612.515 96.4267 611.849 96.24C611.182 96.0533 610.535 95.96 609.909 95.96C608.882 95.96 608.115 96.1333 607.609 96.48C607.115 96.8267 606.869 97.2867 606.869 97.86C606.869 98.26 607.009 98.5867 607.289 98.84C607.582 99.0933 607.949 99.2933 608.389 99.44C608.829 99.5867 609.429 99.7533 610.189 99.94C611.229 100.18 612.082 100.433 612.749 100.7C613.415 100.953 613.982 101.347 614.449 101.88C614.929 102.413 615.169 103.133 615.169 104.04C615.169 104.813 614.955 105.513 614.529 106.14C614.115 106.767 613.482 107.267 612.629 107.64C611.775 108.013 610.735 108.2 609.509 108.2ZM624.487 108.2C623.06 108.2 621.773 107.893 620.627 107.28C619.48 106.653 618.58 105.793 617.927 104.7C617.273 103.593 616.947 102.36 616.947 101C616.947 99.64 617.273 98.4133 617.927 97.32C618.58 96.2133 619.48 95.3533 620.627 94.74C621.773 94.1133 623.06 93.8 624.487 93.8C625.913 93.8 627.2 94.1133 628.347 94.74C629.493 95.3533 630.393 96.2067 631.047 97.3C631.7 98.3933 632.027 99.6267 632.027 101C632.027 102.373 631.7 103.607 631.047 104.7C630.393 105.793 629.493 106.653 628.347 107.28C627.2 107.893 625.913 108.2 624.487 108.2ZM624.487 105.92C625.42 105.92 626.26 105.713 627.007 105.3C627.753 104.873 628.34 104.287 628.767 103.54C629.193 102.78 629.407 101.933 629.407 101C629.407 100.067 629.193 99.2267 628.767 98.48C628.34 97.72 627.753 97.1333 627.007 96.72C626.26 96.2933 625.42 96.08 624.487 96.08C623.553 96.08 622.713 96.2933 621.967 96.72C621.22 97.1333 620.633 97.72 620.207 98.48C619.78 99.2267 619.567 100.067 619.567 101C619.567 101.933 619.78 102.78 620.207 103.54C620.633 104.287 621.22 104.873 621.967 105.3C622.713 105.713 623.553 105.92 624.487 105.92ZM634.983 94H637.583V105.8H644.903V108H634.983V94ZM656.333 104.76H649.333L647.953 108H645.273L651.573 94H654.133L660.453 108H657.733L656.333 104.76ZM655.473 102.72L652.833 96.6L650.213 102.72H655.473ZM666.774 108.2C665.694 108.2 664.647 108.047 663.634 107.74C662.634 107.433 661.84 107.027 661.254 106.52L662.154 104.5C662.727 104.953 663.427 105.327 664.254 105.62C665.094 105.9 665.934 106.04 666.774 106.04C667.814 106.04 668.587 105.873 669.094 105.54C669.614 105.207 669.874 104.767 669.874 104.22C669.874 103.82 669.727 103.493 669.434 103.24C669.154 102.973 668.794 102.767 668.354 102.62C667.914 102.473 667.314 102.307 666.554 102.12C665.487 101.867 664.62 101.613 663.954 101.36C663.3 101.107 662.734 100.713 662.254 100.18C661.787 99.6333 661.554 98.9 661.554 97.98C661.554 97.2067 661.76 96.5067 662.174 95.88C662.6 95.24 663.234 94.7333 664.074 94.36C664.927 93.9867 665.967 93.8 667.194 93.8C668.047 93.8 668.887 93.9067 669.714 94.12C670.54 94.3333 671.254 94.64 671.854 95.04L671.034 97.06C670.42 96.7 669.78 96.4267 669.114 96.24C668.447 96.0533 667.8 95.96 667.174 95.96C666.147 95.96 665.38 96.1333 664.874 96.48C664.38 96.8267 664.134 97.2867 664.134 97.86C664.134 98.26 664.274 98.5867 664.554 98.84C664.847 99.0933 665.214 99.2933 665.654 99.44C666.094 99.5867 666.694 99.7533 667.454 99.94C668.494 100.18 669.347 100.433 670.014 100.7C670.68 100.953 671.247 101.347 671.714 101.88C672.194 102.413 672.434 103.133 672.434 104.04C672.434 104.813 672.22 105.513 671.794 106.14C671.38 106.767 670.747 107.267 669.894 107.64C669.04 108.013 668 108.2 666.774 108.2ZM675.212 94H677.812V108H675.212V94Z" fill="#171989"/>
<path d="M269.609 293.2C268.529 293.2 267.482 293.047 266.469 292.74C265.469 292.433 264.675 292.027 264.089 291.52L264.989 289.5C265.562 289.953 266.262 290.327 267.089 290.62C267.929 290.9 268.769 291.04 269.609 291.04C270.649 291.04 271.422 290.873 271.929 290.54C272.449 290.207 272.709 289.767 272.709 289.22C272.709 288.82 272.562 288.493 272.269 288.24C271.989 287.973 271.629 287.767 271.189 287.62C270.749 287.473 270.149 287.307 269.389 287.12C268.322 286.867 267.455 286.613 266.789 286.36C266.135 286.107 265.569 285.713 265.089 285.18C264.622 284.633 264.389 283.9 264.389 282.98C264.389 282.207 264.595 281.507 265.009 280.88C265.435 280.24 266.069 279.733 266.909 279.36C267.762 278.987 268.802 278.8 270.029 278.8C270.882 278.8 271.722 278.907 272.549 279.12C273.375 279.333 274.089 279.64 274.689 280.04L273.869 282.06C273.255 281.7 272.615 281.427 271.949 281.24C271.282 281.053 270.635 280.96 270.009 280.96C268.982 280.96 268.215 281.133 267.709 281.48C267.215 281.827 266.969 282.287 266.969 282.86C266.969 283.26 267.109 283.587 267.389 283.84C267.682 284.093 268.049 284.293 268.489 284.44C268.929 284.587 269.529 284.753 270.289 284.94C271.329 285.18 272.182 285.433 272.849 285.7C273.515 285.953 274.082 286.347 274.549 286.88C275.029 287.413 275.269 288.133 275.269 289.04C275.269 289.813 275.055 290.513 274.629 291.14C274.215 291.767 273.582 292.267 272.729 292.64C271.875 293.013 270.835 293.2 269.609 293.2ZM284.067 293.2C282.133 293.2 280.627 292.66 279.547 291.58C278.467 290.487 277.927 288.927 277.927 286.9V279H280.527V286.8C280.527 289.547 281.713 290.92 284.087 290.92C286.447 290.92 287.627 289.547 287.627 286.8V279H290.187V286.9C290.187 288.927 289.647 290.487 288.567 291.58C287.5 292.66 286 293.2 284.067 293.2ZM298.368 293.2C297.288 293.2 296.241 293.047 295.228 292.74C294.228 292.433 293.435 292.027 292.848 291.52L293.748 289.5C294.321 289.953 295.021 290.327 295.848 290.62C296.688 290.9 297.528 291.04 298.368 291.04C299.408 291.04 300.181 290.873 300.688 290.54C301.208 290.207 301.468 289.767 301.468 289.22C301.468 288.82 301.321 288.493 301.028 288.24C300.748 287.973 300.388 287.767 299.948 287.62C299.508 287.473 298.908 287.307 298.148 287.12C297.081 286.867 296.215 286.613 295.548 286.36C294.895 286.107 294.328 285.713 293.848 285.18C293.381 284.633 293.148 283.9 293.148 282.98C293.148 282.207 293.355 281.507 293.768 280.88C294.195 280.24 294.828 279.733 295.668 279.36C296.521 278.987 297.561 278.8 298.788 278.8C299.641 278.8 300.481 278.907 301.308 279.12C302.135 279.333 302.848 279.64 303.448 280.04L302.628 282.06C302.015 281.7 301.375 281.427 300.708 281.24C300.041 281.053 299.395 280.96 298.768 280.96C297.741 280.96 296.975 281.133 296.468 281.48C295.975 281.827 295.728 282.287 295.728 282.86C295.728 283.26 295.868 283.587 296.148 283.84C296.441 284.093 296.808 284.293 297.248 284.44C297.688 284.587 298.288 284.753 299.048 284.94C300.088 285.18 300.941 285.433 301.608 285.7C302.275 285.953 302.841 286.347 303.308 286.88C303.788 287.413 304.028 288.133 304.028 289.04C304.028 289.813 303.815 290.513 303.388 291.14C302.975 291.767 302.341 292.267 301.488 292.64C300.635 293.013 299.595 293.2 298.368 293.2ZM312.566 279C313.78 279 314.833 279.2 315.726 279.6C316.633 280 317.326 280.573 317.806 281.32C318.286 282.067 318.526 282.953 318.526 283.98C318.526 284.993 318.286 285.88 317.806 286.64C317.326 287.387 316.633 287.96 315.726 288.36C314.833 288.76 313.78 288.96 312.566 288.96H309.406V293H306.806V279H312.566ZM312.446 286.76C313.58 286.76 314.44 286.52 315.026 286.04C315.613 285.56 315.906 284.873 315.906 283.98C315.906 283.087 315.613 282.4 315.026 281.92C314.44 281.44 313.58 281.2 312.446 281.2H309.406V286.76H312.446ZM331.823 290.82V293H321.323V279H331.543V281.18H323.923V284.82H330.683V286.96H323.923V290.82H331.823ZM339.741 287.14L337.521 289.42V293H334.921V279H337.521V286.18L344.441 279H347.361L341.481 285.26L347.721 293H344.681L339.741 287.14Z" fill="#171989"/>
<defs>
<filter id="filter0_d_106:158" x="0" y="0" width="1178" height="459" filterUnits="userSpaceOnUse" color-interpolation-filters="sRGB">
<feFlood flood-opacity="0" result="BackgroundImageFix"/>
<feColorMatrix in="SourceAlpha" type="matrix" values="0 0 0 0 0 0 0 0 0 0 0 0 0 0 0 0 0 0 127 0" result="hardAlpha"/>
<feOffset dy="4"/>
<feGaussianBlur stdDeviation="2"/>
<feComposite in2="hardAlpha" operator="out"/>
<feColorMatrix type="matrix" values="0 0 0 0 0 0 0 0 0 0 0 0 0 0 0 0 0 0 0.25 0"/>
<feBlend mode="normal" in2="BackgroundImageFix" result="effect1_dropShadow_106:158"/>
<feBlend mode="normal" in="SourceGraphic" in2="effect1_dropShadow_106:158" result="shape"/>
</filter>
</defs>
</svg>
